<?xml version="1.0" encoding="utf-8"?>
<!-- Generator: Adobe Illustrator 27.0.0, SVG Export Plug-In . SVG Version: 6.00 Build 0)  -->
<svg version="1.1" id="Layer_1" xmlns="http://www.w3.org/2000/svg" xmlns:xlink="http://www.w3.org/1999/xlink" x="0px" y="0px"
	 viewBox="0 0 1047 777.3" style="enable-background:new 0 0 1047 777.3;" xml:space="preserve">
<style type="text/css">
	.st0{fill:none;stroke:#FFFFFF;stroke-width:9;stroke-miterlimit:10;}
	.st1{fill:#FFFFFF;}
	.st2{fill:none;}
	.st3{fill:#E2A379;}
	.st4{opacity:0.5;fill:#E2B291;}
	.st5{fill:none;stroke:#E2A379;stroke-width:9;stroke-miterlimit:10;}
	.st6{fill:url(#SVGID_1_);}
	.st7{fill:url(#SVGID_00000002349763579405602650000004104698747349776519_);}
	.st8{font-family:'Lobster-Regular';}
	.st9{font-size:229.4208px;}
</style>
<rect x="1201.5" y="7.6" width="1047" height="777.3"/>
<polyline class="st0" points="2035.9,536.6 2136.1,536.6 2136.1,284.2 1321.3,284.2 1321.3,536.6 1407.3,536.6 "/>
<g>
	<path class="st1" d="M1809.2,358.9c0,15.3-2.4,30-6.8,43.8c-2.6-5.8-5.6-11.5-8.9-16.9c-5.8-9.5-12.6-18.2-20.4-26.1
		c-14.6-14.9-32.4-26.6-52.3-34c-0.9-0.4-1.9-0.7-2.8-1h0c-9-3.2-18.3-5.5-28-6.8c-0.1,0-0.1,0-0.2,0c-2.8-0.4-12.2-2.2-18.2-3.3
		c7.8,1.3,15.8,2,24,2c18,0,35.3-3.3,51.2-9.3c11.1-4.2,21.5-9.7,31.1-16.3c-4.8-10.6-8.3-21.9-10.4-33.6
		c7.7,7.9,14.6,16.6,20.4,26.1c0.7,1.1,1.3,2.2,1.9,3.3c0.2,0.3,0.4,0.7,0.6,1c0.5,0.8,0.9,1.6,1.3,2.4c0.2,0.3,0.3,0.5,0.4,0.8
		c0.5,0.9,1,1.9,1.5,2.9c0.1,0.2,0.2,0.4,0.3,0.7c0.6,1.2,1.1,2.3,1.7,3.5c0.3,0.7,0.6,1.4,0.9,2.1c0.3,0.7,0.6,1.4,0.9,2
		c0.8,1.8,1.5,3.6,2.2,5.4c0.4,0.9,0.7,1.8,1,2.7c0.3,0.9,0.6,1.8,0.9,2.7c0.2,0.5,0.3,1,0.5,1.5c0.2,0.6,0.4,1.2,0.6,1.9
		c0.7,2.4,1.4,4.8,2,7.2c0.2,0.9,0.5,1.9,0.7,2.9c0.5,2.3,1,4.6,1.4,6.9l0,0c1.1,6,1.8,12.2,2.1,18.5
		C1809.2,354.1,1809.2,356.5,1809.2,358.9z"/>
	<path class="st1" d="M2024.3,320.8c-9.8,12.6-21.7,23.5-35.1,32.2h0c-22.7,14.8-49.8,23.4-78.9,23.4c-8.7,0-17.2-0.8-25.4-2.2
		c0.2-2.7,0.2-5.4,0.2-8.2c0-1.4,0-2.8-0.1-4.2c0-0.7,0-1.5-0.1-2.2c0-0.4,0-0.8-0.1-1.2c0-0.7-0.1-1.4-0.1-2.1
		c-0.1-1.4-0.2-2.8-0.3-4.2c-0.1-1-0.2-2-0.3-3.1c-0.1-0.9-0.2-1.8-0.3-2.8c0,0,0,0,0-0.1c-0.1-0.9-0.3-1.8-0.4-2.7
		c-0.1-0.9-0.3-1.8-0.5-2.8c-0.2-0.9-0.3-1.8-0.5-2.7c0,0,0,0,0,0c-0.7-3.6-1.6-7.2-2.5-10.7c-0.3-0.9-0.5-1.8-0.8-2.6
		c-0.3-0.9-0.5-1.8-0.8-2.6c-0.3-0.9-0.6-1.7-0.8-2.6c-0.3-0.8-0.6-1.7-0.9-2.5c0,0,0,0,0,0c-0.3-0.8-0.6-1.7-0.9-2.5
		c-0.3-0.8-0.7-1.7-1-2.5c-0.9-2.3-1.9-4.5-2.9-6.7c-0.3-0.7-0.6-1.4-1-2.1c-0.4-0.7-0.7-1.5-1.1-2.2c-0.6-1.2-1.3-2.5-1.9-3.7
		c-2.6-4.7-5.4-9.3-8.4-13.7c1.6,1.8,3.3,3.7,5.1,5.4l0,0c20.6,21,47.6,35.7,77.9,41c8.2,1.5,16.7,2.2,25.4,2.2
		C1987.8,332.3,2006.9,328.2,2024.3,320.8z"/>
	<path class="st2" d="M1709.3,325"/>
	<path class="st2" d="M1859.4,283.6c-3.9-4.4-7.6-9-10.9-13.9C1852.4,274.1,1856,278.8,1859.4,283.6z"/>
	<path class="st2" d="M1848.4,269.7c3.9,4.4,7.6,9,10.9,13.9C1855.4,279.2,1851.8,274.6,1848.4,269.7z"/>
	<path class="st2" d="M1859.4,283.6c-3.9-4.4-7.6-9-10.9-13.9C1852.4,274.1,1856,278.8,1859.4,283.6z"/>
	<path class="st3" d="M1885.1,366c0,2.7-0.1,5.5-0.2,8.2c-30.2-5.3-57.2-20-77.9-41l0,0c-0.4-2.3-0.9-4.6-1.4-6.9
		c-0.2-1-0.5-1.9-0.7-2.9c-0.6-2.4-1.3-4.8-2-7.2c-0.2-0.6-0.4-1.3-0.6-1.9c-0.2-0.5-0.3-1-0.5-1.5c-0.3-0.9-0.6-1.8-0.9-2.7
		c-0.3-0.9-0.7-1.8-1-2.7c-0.7-1.8-1.4-3.6-2.2-5.4c-0.3-0.7-0.6-1.4-0.9-2c-0.3-0.7-0.6-1.4-0.9-2.1c-0.6-1.2-1.1-2.3-1.7-3.5
		c-0.1-0.2-0.2-0.4-0.3-0.7c-0.5-1-1-1.9-1.5-2.9c-0.1-0.3-0.3-0.5-0.4-0.8c-0.4-0.8-0.9-1.6-1.3-2.4c-0.2-0.3-0.4-0.7-0.6-1
		c-0.6-1.1-1.3-2.2-1.9-3.3c-5.8-9.5-12.6-18.2-20.4-26.1c2.1,11.8,5.6,23,10.4,33.6c-9.6,6.6-20,12.1-31.1,16.3
		c-15.9,6-33.2,9.3-51.2,9.3c-8.2,0-16.2-0.7-24-2c-0.2,0-0.4-0.1-0.6-0.1c-0.4-0.1-0.8-0.1-1.2-0.2c-0.4-0.1-0.7-0.1-1-0.2
		c-0.3,0-0.6-0.1-0.9-0.2c-0.2,0-0.4-0.1-0.7-0.1c-0.1,0-0.2,0-0.3-0.1c-0.2,0-0.4-0.1-0.4-0.1c-3.3-0.7-6.6-1.5-9.8-2.4
		c-1-0.3-2-0.6-3-0.9c-0.4,2.4-0.9,4.8-1.4,7.2c-0.1,0.4-0.2,0.7-0.3,1.1c-6.1,26.8-19.7,50.7-38.4,69.5c2.3-10.3,3.5-21,3.5-31.9
		c0-9.8-1-19.4-2.8-28.7c-0.2-0.8-0.3-1.7-0.5-2.5c-0.1-0.3-0.1-0.5-0.2-0.8c-1.4-6.3-3.3-12.5-5.5-18.4c-5.2-14-12.5-27-21.6-38.6
		c0,0,0,0-0.1-0.1c-1.7-2.2-3.4-4.3-5.3-6.4c0,0,0,0,0,0c-3.4-4.3-6.5-8.8-9.3-13.5c-0.3-0.4-0.5-0.8-0.7-1.2
		c-6.6-11.1-11.8-23.1-15.3-35.9c-0.6-2.2-1.1-4.4-1.6-6.6c-2.6,0.4-5.2,0.6-7.8,0.6c-1.2,0-2.5,0-3.7-0.1
		c-20.4-1.3-37.9-13.8-46.3-31.4c-3.1-6.5-5-13.8-5.4-21.5c5.3,2.6,11.1,4.4,17.2,5.2c2.4,0.3,4.8,0.5,7.3,0.5
		c9.6,0,18.6-2.4,26.5-6.7c1.6-0.9,3.1-1.8,4.6-2.8c0.6-0.4,1.2-0.8,1.8-1.2c0,0,0,0,0,0c2.7-1.3,9.2-3.3,9.4-3.4c0,0,0,0,0,0
		c7.5-0.3,15.5,5.5,15.5,5.5l-10-10h0c6.3-6.2,10.1-14.8,10.1-24.3c0-4.7-0.9-9.1-2.6-13.1c0-0.6,0-1.1,0-1.7
		c18.3,9,30.9,27.9,30.9,49.7c0,7.4-1.4,14.5-4.1,20.9c0,0.1,19.6,17.1,27.5,27.3c10.4,7.1,21.7,13,33.8,17.2h0
		c15.1,5.3,31.2,8.2,48.1,8.2c1.8,0,3.5,0,5.3-0.1h0c1,0.3,19.2-1.1,27.7-1.1c8.7,0,17.2,0.8,25.4,2.2c20,3.5,38.6,11.2,54.9,22
		c10.4,6.9,19.8,15.1,28,24.4c3.4,4.9,7,9.5,10.9,13.9c3,4.4,5.8,9,8.4,13.7c0.7,1.2,1.3,2.4,1.9,3.7c0.4,0.7,0.7,1.5,1.1,2.2
		c0.3,0.7,0.7,1.4,1,2.1c1,2.2,2,4.4,2.9,6.7c0.3,0.8,0.7,1.7,1,2.5c0.3,0.8,0.6,1.7,0.9,2.5c0,0,0,0,0,0c0.3,0.8,0.6,1.7,0.9,2.5
		c0.3,0.9,0.6,1.7,0.8,2.6c0.3,0.9,0.5,1.7,0.8,2.6c0.3,0.9,0.5,1.7,0.8,2.6c1,3.5,1.8,7.1,2.5,10.7c0,0,0,0,0,0
		c0.2,0.9,0.3,1.8,0.5,2.7c0.2,0.9,0.3,1.8,0.5,2.8c0.1,0.9,0.3,1.8,0.4,2.7c0,0,0,0,0,0.1c0.1,0.9,0.3,1.8,0.3,2.8
		c0.1,1,0.2,2,0.3,3.1c0.1,1.4,0.2,2.8,0.3,4.2c0.1,0.7,0.1,1.4,0.1,2.1c0,0.4,0.1,0.8,0.1,1.2c0,0.7,0.1,1.5,0.1,2.2
		C1885,363.2,1885.1,364.6,1885.1,366z"/>
	<path class="st4" d="M1802.5,402.7c-2.6-5.8-5.6-11.5-8.9-16.9c-5.8-9.5-12.6-18.2-20.4-26.1c-14.6-14.9-32.4-26.6-52.3-34
		c-0.9-0.4-1.9-0.7-2.8-1h0c-9-3.2-18.3-5.5-28-6.8c-0.1,0-0.1,0-0.2,0c-2.8-0.4-12.2-2.2-18.2-3.3c-0.2,0-0.4-0.1-0.6-0.1
		c-0.4-0.1-0.8-0.1-1.2-0.2c-0.4-0.1-0.7-0.1-1-0.2c-0.3,0-0.6-0.1-0.9-0.2c-0.2,0-0.4-0.1-0.7-0.1c-0.1,0-0.2,0-0.3-0.1
		c-0.2,0-0.4-0.1-0.4-0.1c-3.3-0.7-6.6-1.5-9.8-2.4l-9.4-27.6c0,0.7,53.6-11,99.4,23.6C1770,324.7,1791.2,354,1802.5,402.7z"/>
	<path class="st4" d="M1613.7,324.2c-1.4-6.3-3.3-12.5-5.5-18.4c-5.2-14-12.5-27-21.6-38.6c0,0,0,0-0.1-0.1
		c-1.7-2.2-3.4-4.3-5.3-6.4c0,0,0,0,0,0c-3.4-4.3-6.5-8.8-9.3-13.5c-0.3-0.4-0.5-0.8-0.7-1.2c-6.6-11.1-11.8-23.1-15.3-35.9
		c-0.6-2.2-1.1-4.4-1.6-6.6c0,0,10.6-1.5,16.6-11.7C1574.3,234.8,1599.8,259.8,1613.7,324.2z"/>
	<path class="st4" d="M1989.2,353c-22.7,14.8-49.8,23.4-78.9,23.4c-8.7,0-17.2-0.8-25.4-2.2c-30.2-5.3-57.2-20-77.9-41l0,0
		c-0.4-2.3-0.9-4.6-1.4-6.9c-0.2-1-0.5-1.9-0.7-2.9c-0.6-2.4-1.3-4.8-2-7.2c-0.2-0.6-0.4-1.3-0.6-1.9c-0.2-0.5-0.3-1-0.5-1.5
		c-0.3-0.9-0.6-1.8-0.9-2.7c-0.3-0.9-0.7-1.8-1-2.7c-0.7-1.8-1.4-3.6-2.2-5.4c-0.3-0.7-0.6-1.4-0.9-2c-0.3-0.7-0.6-1.4-0.9-2.1
		c0,0,35.9,36.5,88.6,54.2C1914.9,362.4,1951.1,366.3,1989.2,353z"/>
</g>
<g>
	<path class="st1" d="M1809.2,1328.1c0,15.3-2.4,30-6.8,43.8c-2.6-5.8-5.6-11.5-8.9-16.9c-5.8-9.5-12.6-18.2-20.4-26.1
		c-14.6-14.9-32.4-26.6-52.3-34c-0.9-0.4-1.9-0.7-2.8-1h0c-9-3.2-18.3-5.5-28-6.8c-0.1,0-0.1,0-0.2,0c-2.8-0.4-12.2-2.2-18.2-3.3
		c7.8,1.3,15.8,2,24,2c18,0,35.3-3.3,51.2-9.3c11.1-4.2,21.5-9.7,31.1-16.3c-4.8-10.6-8.3-21.9-10.4-33.6
		c7.7,7.9,14.6,16.6,20.4,26.1c0.7,1.1,1.3,2.2,1.9,3.3c0.2,0.3,0.4,0.7,0.6,1c0.5,0.8,0.9,1.6,1.3,2.4c0.2,0.3,0.3,0.5,0.4,0.8
		c0.5,0.9,1,1.9,1.5,2.9c0.1,0.2,0.2,0.4,0.3,0.7c0.6,1.2,1.1,2.3,1.7,3.5c0.3,0.7,0.6,1.4,0.9,2.1c0.3,0.7,0.6,1.4,0.9,2
		c0.8,1.8,1.5,3.6,2.2,5.4c0.4,0.9,0.7,1.8,1,2.7c0.3,0.9,0.6,1.8,0.9,2.7c0.2,0.5,0.3,1,0.5,1.5c0.2,0.6,0.4,1.2,0.6,1.9
		c0.7,2.4,1.4,4.8,2,7.2c0.2,0.9,0.5,1.9,0.7,2.9c0.5,2.3,1,4.6,1.4,6.9l0,0c1.1,6,1.8,12.2,2.1,18.5
		C1809.2,1323.3,1809.2,1325.7,1809.2,1328.1z"/>
	<path class="st1" d="M2024.3,1290.1c-9.8,12.6-21.7,23.5-35.1,32.2h0c-22.7,14.8-49.8,23.4-78.9,23.4c-8.7,0-17.2-0.8-25.4-2.2
		c0.2-2.7,0.2-5.4,0.2-8.2c0-1.4,0-2.8-0.1-4.2c0-0.7,0-1.5-0.1-2.2c0-0.4,0-0.8-0.1-1.2c0-0.7-0.1-1.4-0.1-2.1
		c-0.1-1.4-0.2-2.8-0.3-4.2c-0.1-1-0.2-2-0.3-3.1c-0.1-0.9-0.2-1.8-0.3-2.8c0,0,0,0,0-0.1c-0.1-0.9-0.3-1.8-0.4-2.7
		c-0.1-0.9-0.3-1.8-0.5-2.8c-0.2-0.9-0.3-1.8-0.5-2.7c0,0,0,0,0,0c-0.7-3.6-1.6-7.2-2.5-10.7c-0.3-0.9-0.5-1.8-0.8-2.6
		c-0.3-0.9-0.5-1.8-0.8-2.6c-0.3-0.9-0.6-1.7-0.8-2.6c-0.3-0.8-0.6-1.7-0.9-2.5c0,0,0,0,0,0c-0.3-0.8-0.6-1.7-0.9-2.5
		c-0.3-0.8-0.7-1.7-1-2.5c-0.9-2.3-1.9-4.5-2.9-6.7c-0.3-0.7-0.6-1.4-1-2.1c-0.4-0.7-0.7-1.5-1.1-2.2c-0.6-1.2-1.3-2.5-1.9-3.7
		c-2.6-4.7-5.4-9.3-8.4-13.7c1.6,1.8,3.3,3.7,5.1,5.4l0,0c20.6,21,47.6,35.7,77.9,41c8.2,1.5,16.7,2.2,25.4,2.2
		C1987.8,1301.5,2006.9,1297.4,2024.3,1290.1z"/>
	<path class="st2" d="M1709.3,1294.2"/>
	<path class="st2" d="M1859.4,1252.8c-3.9-4.4-7.6-9-10.9-13.9C1852.4,1243.3,1856,1248,1859.4,1252.8z"/>
	<path class="st2" d="M1848.4,1238.9c3.9,4.4,7.6,9,10.9,13.9C1855.4,1248.4,1851.8,1243.8,1848.4,1238.9z"/>
	<path class="st2" d="M1859.4,1252.8c-3.9-4.4-7.6-9-10.9-13.9C1852.4,1243.3,1856,1248,1859.4,1252.8z"/>
	<path class="st3" d="M1885.1,1335.2c0,2.7-0.1,5.5-0.2,8.2c-30.2-5.3-57.2-20-77.9-41l0,0c-0.4-2.3-0.9-4.6-1.4-6.9
		c-0.2-1-0.5-1.9-0.7-2.9c-0.6-2.4-1.3-4.8-2-7.2c-0.2-0.6-0.4-1.3-0.6-1.9c-0.2-0.5-0.3-1-0.5-1.5c-0.3-0.9-0.6-1.8-0.9-2.7
		c-0.3-0.9-0.7-1.8-1-2.7c-0.7-1.8-1.4-3.6-2.2-5.4c-0.3-0.7-0.6-1.4-0.9-2c-0.3-0.7-0.6-1.4-0.9-2.1c-0.6-1.2-1.1-2.3-1.7-3.5
		c-0.1-0.2-0.2-0.4-0.3-0.7c-0.5-1-1-1.9-1.5-2.9c-0.1-0.3-0.3-0.5-0.4-0.8c-0.4-0.8-0.9-1.6-1.3-2.4c-0.2-0.3-0.4-0.7-0.6-1
		c-0.6-1.1-1.3-2.2-1.9-3.3c-5.8-9.5-12.6-18.2-20.4-26.1c2.1,11.8,5.6,23,10.4,33.6c-9.6,6.6-20,12.1-31.1,16.3
		c-15.9,6-33.2,9.3-51.2,9.3c-8.2,0-16.2-0.7-24-2c-0.2,0-0.4-0.1-0.6-0.1c-0.4-0.1-0.8-0.1-1.2-0.2c-0.4-0.1-0.7-0.1-1-0.2
		c-0.3,0-0.6-0.1-0.9-0.2c-0.2,0-0.4-0.1-0.7-0.1c-0.1,0-0.2,0-0.3-0.1c-0.2,0-0.4-0.1-0.4-0.1c-3.3-0.7-6.6-1.5-9.8-2.4
		c-1-0.3-2-0.6-3-0.9c-0.4,2.4-0.9,4.8-1.4,7.2c-0.1,0.4-0.2,0.7-0.3,1.1c-6.1,26.8-19.7,50.7-38.4,69.5c2.3-10.3,3.5-21,3.5-31.9
		c0-9.8-1-19.4-2.8-28.7c-0.2-0.8-0.3-1.7-0.5-2.5c-0.1-0.3-0.1-0.5-0.2-0.8c-1.4-6.3-3.3-12.5-5.5-18.4c-5.2-14-12.5-27-21.6-38.6
		c0,0,0,0-0.1-0.1c-1.7-2.2-3.4-4.3-5.3-6.4c0,0,0,0,0,0c-3.4-4.3-6.5-8.8-9.3-13.5c-0.3-0.4-0.5-0.8-0.7-1.2
		c-6.6-11.1-11.8-23.1-15.3-35.9c-0.6-2.2-1.1-4.4-1.6-6.6c-2.6,0.4-5.2,0.6-7.8,0.6c-1.2,0-2.5,0-3.7-0.1
		c-20.4-1.3-37.9-13.8-46.3-31.4c-3.1-6.5-5-13.8-5.4-21.5c5.3,2.6,11.1,4.4,17.2,5.2c2.4,0.3,4.8,0.5,7.3,0.5
		c9.6,0,18.6-2.4,26.5-6.7c1.6-0.9,3.1-1.8,4.6-2.8c0.6-0.4,1.2-0.8,1.8-1.2c0,0,0,0,0,0c2.7-1.3,9.2-3.3,9.4-3.4c0,0,0,0,0,0
		c7.5-0.3,15.5,5.5,15.5,5.5l-10-10h0c6.3-6.2,10.1-14.8,10.1-24.3c0-4.7-0.9-9.1-2.6-13.1c0-0.6,0-1.1,0-1.7
		c18.3,9,30.9,27.9,30.9,49.7c0,7.4-1.4,14.5-4.1,20.9c0,0.1,19.6,17.1,27.5,27.3c10.4,7.1,21.7,13,33.8,17.2h0
		c15.1,5.3,31.2,8.2,48.1,8.2c1.8,0,3.5,0,5.3-0.1h0c1,0.3,19.2-1.1,27.7-1.1c8.7,0,17.2,0.8,25.4,2.2c20,3.5,38.6,11.2,54.9,22
		c10.4,6.9,19.8,15.1,28,24.4c3.4,4.9,7,9.5,10.9,13.9c3,4.4,5.8,9,8.4,13.7c0.7,1.2,1.3,2.4,1.9,3.7c0.4,0.7,0.7,1.5,1.1,2.2
		c0.3,0.7,0.7,1.4,1,2.1c1,2.2,2,4.4,2.9,6.7c0.3,0.8,0.7,1.7,1,2.5c0.3,0.8,0.6,1.7,0.9,2.5c0,0,0,0,0,0c0.3,0.8,0.6,1.7,0.9,2.5
		c0.3,0.9,0.6,1.7,0.8,2.6c0.3,0.9,0.5,1.7,0.8,2.6c0.3,0.9,0.5,1.7,0.8,2.6c1,3.5,1.8,7.1,2.5,10.7c0,0,0,0,0,0
		c0.2,0.9,0.3,1.8,0.5,2.7c0.2,0.9,0.3,1.8,0.5,2.8c0.1,0.9,0.3,1.8,0.4,2.7c0,0,0,0,0,0.1c0.1,0.9,0.3,1.8,0.3,2.8
		c0.1,1,0.2,2,0.3,3.1c0.1,1.4,0.2,2.8,0.3,4.2c0.1,0.7,0.1,1.4,0.1,2.1c0,0.4,0.1,0.8,0.1,1.2c0,0.7,0.1,1.5,0.1,2.2
		C1885,1332.4,1885.1,1333.8,1885.1,1335.2z"/>
	<path class="st4" d="M1802.5,1371.9c-2.6-5.8-5.6-11.5-8.9-16.9c-5.8-9.5-12.6-18.2-20.4-26.1c-14.6-14.9-32.4-26.6-52.3-34
		c-0.9-0.4-1.9-0.7-2.8-1h0c-9-3.2-18.3-5.5-28-6.8c-0.1,0-0.1,0-0.2,0c-2.8-0.4-12.2-2.2-18.2-3.3c-0.2,0-0.4-0.1-0.6-0.1
		c-0.4-0.1-0.8-0.1-1.2-0.2c-0.4-0.1-0.7-0.1-1-0.2c-0.3,0-0.6-0.1-0.9-0.2c-0.2,0-0.4-0.1-0.7-0.1c-0.1,0-0.2,0-0.3-0.1
		c-0.2,0-0.4-0.1-0.4-0.1c-3.3-0.7-6.6-1.5-9.8-2.4l-9.4-27.6c0,0.7,53.6-11,99.4,23.6C1770,1293.9,1791.2,1323.2,1802.5,1371.9z"/>
	<path class="st4" d="M1613.7,1293.4c-1.4-6.3-3.3-12.5-5.5-18.4c-5.2-14-12.5-27-21.6-38.6c0,0,0,0-0.1-0.1
		c-1.7-2.2-3.4-4.3-5.3-6.4c0,0,0,0,0,0c-3.4-4.3-6.5-8.8-9.3-13.5c-0.3-0.4-0.5-0.8-0.7-1.2c-6.6-11.1-11.8-23.1-15.3-35.9
		c-0.6-2.2-1.1-4.4-1.6-6.6c0,0,10.6-1.5,16.6-11.7C1574.3,1204,1599.8,1229,1613.7,1293.4z"/>
	<path class="st4" d="M1989.2,1322.2c-22.7,14.8-49.8,23.4-78.9,23.4c-8.7,0-17.2-0.8-25.4-2.2c-30.2-5.3-57.2-20-77.9-41l0,0
		c-0.4-2.3-0.9-4.6-1.4-6.9c-0.2-1-0.5-1.9-0.7-2.9c-0.6-2.4-1.3-4.8-2-7.2c-0.2-0.6-0.4-1.3-0.6-1.9c-0.2-0.5-0.3-1-0.5-1.5
		c-0.3-0.9-0.6-1.8-0.9-2.7c-0.3-0.9-0.7-1.8-1-2.7c-0.7-1.8-1.4-3.6-2.2-5.4c-0.3-0.7-0.6-1.4-0.9-2c-0.3-0.7-0.6-1.4-0.9-2.1
		c0,0,35.9,36.5,88.6,54.2C1914.9,1331.6,1951.1,1335.5,1989.2,1322.2z"/>
</g>
<text transform="matrix(1 0 0 1 1422.5497 599.6599)" class="st1 st8 st9">Foxtail</text>
<g>
	<g>
		<path class="st1" d="M1543.4,678.7h-2.4l6.7-33.4h22.3l-0.5,2.2h-19.9L1543.4,678.7z M1546.4,661.7h18.1l-0.4,2.2H1546
			L1546.4,661.7z"/>
		<path class="st1" d="M1605.6,678.7l22-33.4h2.4l8.7,33.4h-2.5l-8.1-31.9h1l-20.9,31.9H1605.6z M1613.1,669.3l1.2-2.1h19.9l0.4,2.1
			H1613.1z"/>
		<path class="st1" d="M1684.9,678.7l6.7-33.4h11.7c3.7,0,6.5,0.8,8.6,2.4s3,3.9,3,6.8c0,2.9-0.6,5.3-1.9,7.2c-1.2,2-3,3.4-5.3,4.5
			s-5,1.5-8.2,1.5h-11.1l1.3-1.1l-2.4,12.1H1684.9z M1689.7,666.7l-0.8-1.2h10.6c4.1,0,7.2-0.9,9.5-2.7c2.3-1.8,3.4-4.5,3.4-8.1
			c0-2.3-0.8-4.1-2.4-5.3c-1.6-1.2-3.9-1.9-6.9-1.9h-10.6l1.3-1.2L1689.7,666.7z M1708.1,678.7l-6.8-12.1h2.7l6.8,12.1H1708.1z"/>
		<path class="st1" d="M1759.3,678.7l6.7-33.4h2l10.4,26.8l-1-0.1l20.5-26.7h2.1l-6.7,33.4h-2.4l6-29.8l0.7,0.1l-19.5,25.2h-1.2
			l-9.9-25.4l0.6,0.1l-5.9,29.7H1759.3z"/>
		<path class="st1" d="M1854.4,678.9c-1.6,0-3.2-0.2-4.7-0.6s-2.9-0.9-4.2-1.6s-2.2-1.4-2.9-2.2l1.3-1.9c0.7,0.8,1.6,1.5,2.7,2.1
			c1.1,0.6,2.4,1.1,3.8,1.5c1.4,0.3,2.8,0.5,4.2,0.5c2.1,0,3.9-0.3,5.5-0.9c1.6-0.6,2.9-1.4,3.7-2.5c0.9-1.1,1.3-2.4,1.3-4
			c0-1.2-0.3-2.1-1-2.9c-0.7-0.7-1.5-1.3-2.5-1.8c-1-0.5-2.2-0.9-3.4-1.2s-2.5-0.7-3.8-1.1c-1.3-0.4-2.4-0.9-3.4-1.5
			c-1-0.6-1.9-1.4-2.5-2.3c-0.7-1-1-2.2-1-3.6c0-2.1,0.6-3.9,1.7-5.3c1.1-1.5,2.7-2.6,4.6-3.4c1.9-0.8,4.2-1.2,6.6-1.2
			c1.9,0,3.8,0.2,5.5,0.7c1.8,0.5,3.3,1.2,4.5,2.2l-1.1,2c-1.2-0.9-2.5-1.6-4.1-2.1c-1.6-0.5-3.2-0.7-4.9-0.7c-2,0-3.8,0.3-5.4,0.9
			s-2.8,1.4-3.7,2.6c-0.9,1.1-1.3,2.5-1.3,4.1c0,1.2,0.3,2.1,1,2.9c0.6,0.7,1.5,1.4,2.5,1.9c1,0.5,2.2,0.9,3.5,1.3
			c1.3,0.4,2.5,0.7,3.8,1.1c1.2,0.4,2.4,0.9,3.4,1.5s1.9,1.3,2.6,2.3c0.7,0.9,1,2.1,1,3.5c0,2.1-0.6,3.9-1.7,5.4
			c-1.2,1.5-2.7,2.6-4.7,3.3C1859.1,678.5,1856.9,678.9,1854.4,678.9z"/>
	</g>
</g>
<polyline class="st5" points="830.7,522.5 930.9,522.5 930.9,270.1 116.1,270.1 116.1,522.5 202.1,522.5 "/>
<g>
	<path class="st1" d="M604,344.8c0,15.3-2.4,30-6.8,43.8c-2.6-5.8-5.6-11.5-8.9-16.9c-5.8-9.5-12.6-18.2-20.4-26.1
		c-14.6-14.9-32.4-26.6-52.3-34c-0.9-0.4-1.9-0.7-2.8-1h0c-9-3.2-18.3-5.5-28-6.8c-0.1,0-0.1,0-0.2,0c-2.8-0.4-12.2-2.2-18.2-3.3
		c7.8,1.3,15.8,2,24,2c18,0,35.3-3.3,51.2-9.3c11.1-4.2,21.5-9.7,31.1-16.3c-4.8-10.6-8.3-21.9-10.4-33.6
		c7.7,7.9,14.6,16.6,20.4,26.1c0.7,1.1,1.3,2.2,1.9,3.3c0.2,0.3,0.4,0.7,0.6,1c0.5,0.8,0.9,1.6,1.3,2.4c0.2,0.3,0.3,0.5,0.4,0.8
		c0.5,0.9,1,1.9,1.5,2.9c0.1,0.2,0.2,0.4,0.3,0.7c0.6,1.2,1.1,2.3,1.7,3.5c0.3,0.7,0.6,1.4,0.9,2.1c0.3,0.7,0.6,1.4,0.9,2
		c0.8,1.8,1.5,3.6,2.2,5.4c0.4,0.9,0.7,1.8,1,2.7c0.3,0.9,0.6,1.8,0.9,2.7c0.2,0.5,0.3,1,0.5,1.5c0.2,0.6,0.4,1.2,0.6,1.9
		c0.7,2.4,1.4,4.8,2,7.2c0.2,0.9,0.5,1.9,0.7,2.9c0.5,2.3,1,4.6,1.4,6.9l0,0c1.1,6,1.8,12.2,2.1,18.5C604,340,604,342.4,604,344.8z"
		/>
	<linearGradient id="SVGID_1_" gradientUnits="userSpaceOnUse" x1="643.9679" y1="304.1974" x2="950.8404" y2="389.349">
		<stop  offset="0" style="stop-color:#FFFFFF"/>
		<stop  offset="0.1669" style="stop-color:#FCFCFC"/>
		<stop  offset="0.2979" style="stop-color:#F2F2F2"/>
		<stop  offset="0.4167" style="stop-color:#E1E1E1"/>
		<stop  offset="0.5284" style="stop-color:#CACACA"/>
		<stop  offset="0.635" style="stop-color:#ABABAB"/>
		<stop  offset="0.7379" style="stop-color:#868686"/>
		<stop  offset="0.8377" style="stop-color:#5A5A5A"/>
		<stop  offset="0.9328" style="stop-color:#282828"/>
		<stop  offset="1" style="stop-color:#000000"/>
	</linearGradient>
	<path class="st6" d="M819.1,306.8c-9.8,12.6-21.7,23.5-35.1,32.2h0c-22.7,14.8-49.8,23.4-78.9,23.4c-8.7,0-17.2-0.8-25.4-2.2
		c0.2-2.7,0.2-5.4,0.2-8.2c0-1.4,0-2.8-0.1-4.2c0-0.7,0-1.5-0.1-2.2c0-0.4,0-0.8-0.1-1.2c0-0.7-0.1-1.4-0.1-2.1
		c-0.1-1.4-0.2-2.8-0.3-4.2c-0.1-1-0.2-2-0.3-3.1c-0.1-0.9-0.2-1.8-0.3-2.8c0,0,0,0,0-0.1c-0.1-0.9-0.3-1.8-0.4-2.7
		c-0.1-0.9-0.3-1.8-0.5-2.8c-0.2-0.9-0.3-1.8-0.5-2.7c0,0,0,0,0,0c-0.7-3.6-1.6-7.2-2.5-10.7c-0.3-0.9-0.5-1.8-0.8-2.6
		c-0.3-0.9-0.5-1.8-0.8-2.6c-0.3-0.9-0.6-1.7-0.8-2.6c-0.3-0.8-0.6-1.7-0.9-2.5c0,0,0,0,0,0c-0.3-0.8-0.6-1.7-0.9-2.5
		c-0.3-0.8-0.7-1.7-1-2.5c-0.9-2.3-1.9-4.5-2.9-6.7c-0.3-0.7-0.6-1.4-1-2.1c-0.4-0.7-0.7-1.5-1.1-2.2c-0.6-1.2-1.3-2.5-1.9-3.7
		c-2.6-4.7-5.4-9.3-8.4-13.7c1.6,1.8,3.3,3.7,5.1,5.4l0,0c20.6,21,47.6,35.7,77.9,41c8.2,1.5,16.7,2.2,25.4,2.2
		C782.6,318.2,801.7,314.2,819.1,306.8z"/>
	<path class="st2" d="M504,311"/>
	<path class="st2" d="M654.1,269.5c-3.9-4.4-7.6-9-10.9-13.9C647.1,260,650.8,264.7,654.1,269.5z"/>
	<path class="st2" d="M643.2,255.6c3.9,4.4,7.6,9,10.9,13.9C650.2,265.2,646.6,260.5,643.2,255.6z"/>
	<path class="st2" d="M654.1,269.5c-3.9-4.4-7.6-9-10.9-13.9C647.1,260,650.8,264.7,654.1,269.5z"/>
	
		<linearGradient id="SVGID_00000071520084206232938040000001932207002735618746_" gradientUnits="userSpaceOnUse" x1="288.4216" y1="190.5414" x2="681.7979" y2="345.9113">
		<stop  offset="0" style="stop-color:#E2A379"/>
		<stop  offset="0.3154" style="stop-color:#DE9F75"/>
		<stop  offset="0.5809" style="stop-color:#D4946B"/>
		<stop  offset="0.8275" style="stop-color:#C5835D"/>
		<stop  offset="1" style="stop-color:#B7744F"/>
	</linearGradient>
	<path style="fill:url(#SVGID_00000071520084206232938040000001932207002735618746_);" d="M679.8,351.9c0,2.7-0.1,5.5-0.2,8.2
		c-30.2-5.3-57.2-20-77.9-41l0,0c-0.4-2.3-0.9-4.6-1.4-6.9c-0.2-1-0.5-1.9-0.7-2.9c-0.6-2.4-1.3-4.8-2-7.2c-0.2-0.6-0.4-1.3-0.6-1.9
		c-0.2-0.5-0.3-1-0.5-1.5c-0.3-0.9-0.6-1.8-0.9-2.7c-0.3-0.9-0.7-1.8-1-2.7c-0.7-1.8-1.4-3.6-2.2-5.4c-0.3-0.7-0.6-1.4-0.9-2
		c-0.3-0.7-0.6-1.4-0.9-2.1c-0.6-1.2-1.1-2.3-1.7-3.5c-0.1-0.2-0.2-0.4-0.3-0.7c-0.5-1-1-1.9-1.5-2.9c-0.1-0.3-0.3-0.5-0.4-0.8
		c-0.4-0.8-0.9-1.6-1.3-2.4c-0.2-0.3-0.4-0.7-0.6-1c-0.6-1.1-1.3-2.2-1.9-3.3c-5.8-9.5-12.6-18.2-20.4-26.1
		c2.1,11.8,5.6,23,10.4,33.6c-9.6,6.6-20,12.1-31.1,16.3c-15.9,6-33.2,9.3-51.2,9.3c-8.2,0-16.2-0.7-24-2c-0.2,0-0.4-0.1-0.6-0.1
		c-0.4-0.1-0.8-0.1-1.2-0.2c-0.4-0.1-0.7-0.1-1-0.2c-0.3,0-0.6-0.1-0.9-0.2c-0.2,0-0.4-0.1-0.7-0.1c-0.1,0-0.2,0-0.3-0.1
		c-0.2,0-0.4-0.1-0.4-0.1c-3.3-0.7-6.6-1.5-9.8-2.4c-1-0.3-2-0.6-3-0.9c-0.4,2.4-0.9,4.8-1.4,7.2c-0.1,0.4-0.2,0.7-0.3,1.1
		c-6.1,26.8-19.7,50.7-38.4,69.5c2.3-10.3,3.5-21,3.5-31.9c0-9.8-1-19.4-2.8-28.7c-0.2-0.8-0.3-1.7-0.5-2.5
		c-0.1-0.3-0.1-0.5-0.2-0.8c-1.4-6.3-3.3-12.5-5.5-18.4c-5.2-14-12.5-27-21.6-38.6c0,0,0,0-0.1-0.1c-1.7-2.2-3.4-4.3-5.3-6.4
		c0,0,0,0,0,0c-3.4-4.3-6.5-8.8-9.3-13.5c-0.3-0.4-0.5-0.8-0.7-1.2c-6.6-11.1-11.8-23.1-15.3-35.9c-0.6-2.2-1.1-4.4-1.6-6.6
		c-2.6,0.4-5.2,0.6-7.8,0.6c-1.2,0-2.5,0-3.7-0.1c-20.4-1.3-37.9-13.8-46.3-31.4c-3.1-6.5-5-13.8-5.4-21.5
		c5.3,2.6,11.1,4.4,17.2,5.2c2.4,0.3,4.8,0.5,7.3,0.5c9.6,0,18.6-2.4,26.5-6.7c1.6-0.9,3.1-1.8,4.6-2.8c0.6-0.4,1.2-0.8,1.8-1.2
		c0,0,0,0,0,0c2.7-1.3,9.2-3.3,9.4-3.4c0,0,0,0,0,0c7.5-0.3,15.5,5.5,15.5,5.5l-10-10h0c6.3-6.2,10.1-14.8,10.1-24.3
		c0-4.7-0.9-9.1-2.6-13.1c0-0.6,0-1.1,0-1.7c18.3,9,30.9,27.9,30.9,49.7c0,7.4-1.4,14.5-4.1,20.9c0,0.1,19.6,17.1,27.5,27.3
		c10.4,7.1,21.7,13,33.8,17.2h0c15.1,5.3,31.2,8.2,48.1,8.2c1.8,0,3.5,0,5.3-0.1h0c1,0.3,19.2-1.1,27.7-1.1c8.7,0,17.2,0.8,25.4,2.2
		c20,3.5,38.6,11.2,54.9,22c10.4,6.9,19.8,15.1,28,24.4c3.4,4.9,7,9.5,10.9,13.9c3,4.4,5.8,9,8.4,13.7c0.7,1.2,1.3,2.4,1.9,3.7
		c0.4,0.7,0.7,1.5,1.1,2.2c0.3,0.7,0.7,1.4,1,2.1c1,2.2,2,4.4,2.9,6.7c0.3,0.8,0.7,1.7,1,2.5c0.3,0.8,0.6,1.7,0.9,2.5c0,0,0,0,0,0
		c0.3,0.8,0.6,1.7,0.9,2.5c0.3,0.9,0.6,1.7,0.8,2.6c0.3,0.9,0.5,1.7,0.8,2.6c0.3,0.9,0.5,1.7,0.8,2.6c1,3.5,1.8,7.1,2.5,10.7
		c0,0,0,0,0,0c0.2,0.9,0.3,1.8,0.5,2.7c0.2,0.9,0.3,1.8,0.5,2.8c0.1,0.9,0.3,1.8,0.4,2.7c0,0,0,0,0,0.1c0.1,0.9,0.3,1.8,0.3,2.8
		c0.1,1,0.2,2,0.3,3.1c0.1,1.4,0.2,2.8,0.3,4.2c0.1,0.7,0.1,1.4,0.1,2.1c0,0.4,0.1,0.8,0.1,1.2c0,0.7,0.1,1.5,0.1,2.2
		C679.8,349.1,679.8,350.5,679.8,351.9z"/>
	<path class="st4" d="M597.3,388.7c-2.6-5.8-5.6-11.5-8.9-16.9c-5.8-9.5-12.6-18.2-20.4-26.1c-14.6-14.9-32.4-26.6-52.3-34
		c-0.9-0.4-1.9-0.7-2.8-1h0c-9-3.2-18.3-5.5-28-6.8c-0.1,0-0.1,0-0.2,0c-2.8-0.4-12.2-2.2-18.2-3.3c-0.2,0-0.4-0.1-0.6-0.1
		c-0.4-0.1-0.8-0.1-1.2-0.2c-0.4-0.1-0.7-0.1-1-0.2c-0.3,0-0.6-0.1-0.9-0.2c-0.2,0-0.4-0.1-0.7-0.1c-0.1,0-0.2,0-0.3-0.1
		c-0.2,0-0.4-0.1-0.4-0.1c-3.3-0.7-6.6-1.5-9.8-2.4l-9.4-27.6c0,0.7,53.6-11,99.4,23.6C564.8,310.6,586,339.9,597.3,388.7z"/>
	<path class="st4" d="M408.5,310.1c-1.4-6.3-3.3-12.5-5.5-18.4c-5.2-14-12.5-27-21.6-38.6c0,0,0,0-0.1-0.1c-1.7-2.2-3.4-4.3-5.3-6.4
		c0,0,0,0,0,0c-3.4-4.3-6.5-8.8-9.3-13.5c-0.3-0.4-0.5-0.8-0.7-1.2c-6.6-11.1-11.8-23.1-15.3-35.9c-0.6-2.2-1.1-4.4-1.6-6.6
		c0,0,10.6-1.5,16.6-11.7C369.1,220.7,394.6,245.7,408.5,310.1z"/>
	<path class="st4" d="M783.9,338.9c-22.7,14.8-49.8,23.4-78.9,23.4c-8.7,0-17.2-0.8-25.4-2.2c-30.2-5.3-57.2-20-77.9-41l0,0
		c-0.4-2.3-0.9-4.6-1.4-6.9c-0.2-1-0.5-1.9-0.7-2.9c-0.6-2.4-1.3-4.8-2-7.2c-0.2-0.6-0.4-1.3-0.6-1.9c-0.2-0.5-0.3-1-0.5-1.5
		c-0.3-0.9-0.6-1.8-0.9-2.7c-0.3-0.9-0.7-1.8-1-2.7c-0.7-1.8-1.4-3.6-2.2-5.4c-0.3-0.7-0.6-1.4-0.9-2c-0.3-0.7-0.6-1.4-0.9-2.1
		c0,0,35.9,36.5,88.6,54.2C709.7,348.3,745.9,352.2,783.9,338.9z"/>
</g>
<text transform="matrix(1 0 0 1 217.3268 585.5903)" class="st8 st9">Foxtail</text>
<g>
	<g>
		<path class="st3" d="M367.2,664.6H361l6.7-33.4h24.4l-1,5.2h-18.2L367.2,664.6z M370.3,646.6H387l-1,5.2h-16.7L370.3,646.6z"/>
		<path class="st3" d="M426.8,664.6l21.8-33.4h6.1l8.3,33.4h-6.2l-7-30.2h2.5l-18.9,30.2H426.8z M435.2,656.9l2.7-4.9h18l0.8,4.9
			H435.2z"/>
		<path class="st3" d="M507.3,664.6l6.7-33.4h13c4.1,0,7.2,0.9,9.4,2.6s3.3,4.2,3.3,7.4c0,2.8-0.6,5.2-1.9,7.2
			c-1.3,2.1-3.1,3.6-5.5,4.7c-2.4,1.1-5.2,1.6-8.4,1.6h-11l3.2-2.8l-2.5,12.6H507.3z M515.9,652.8l-2.1-3.1H524c3,0,5.3-0.7,7-2
			c1.7-1.3,2.5-3.3,2.5-5.8c0-1.8-0.6-3.2-1.9-4.1c-1.2-0.9-3-1.3-5.2-1.3h-9.7l3.2-3.1L515.9,652.8z M529.3,664.6l-6.8-12.1h6.5
			l6.8,12.1H529.3z"/>
		<path class="st3" d="M582.3,664.6l6.7-33.4h5.1l9.8,24.5l-2.7,0l19-24.4h5.4l-6.7,33.4H613l4.8-24.3l1.4,0.1l-16.1,20.5h-2.8
			l-8.5-20.6l1.2,0.1l-4.8,24.2H582.3z"/>
		<path class="st3" d="M678.9,665.1c-1.7,0-3.4-0.2-5.1-0.5c-1.7-0.3-3.2-0.8-4.5-1.4c-1.4-0.6-2.5-1.3-3.4-2l2.6-4.9
			c1,0.8,2,1.5,3.2,2c1.2,0.5,2.4,1,3.7,1.2c1.3,0.3,2.6,0.4,4,0.4c1.6,0,3-0.2,4.2-0.6s2.1-0.9,2.8-1.6c0.7-0.7,1-1.5,1-2.5
			c0-0.9-0.3-1.6-0.9-2.2c-0.6-0.6-1.4-1-2.4-1.4c-1-0.4-2.1-0.7-3.3-1c-1.2-0.3-2.4-0.7-3.6-1.1s-2.3-1-3.3-1.6s-1.8-1.5-2.4-2.5
			c-0.6-1-0.9-2.3-0.9-3.9c0-2.2,0.6-4,1.9-5.7c1.2-1.6,2.9-2.9,5.1-3.7c2.2-0.9,4.7-1.3,7.6-1.3c2.2,0,4.2,0.2,6.2,0.7
			c1.9,0.5,3.6,1.2,5,2.1l-2.4,4.9c-1.2-0.9-2.6-1.5-4.2-1.9s-3.2-0.6-4.8-0.6c-1.7,0-3.1,0.2-4.3,0.6c-1.2,0.4-2.1,1-2.8,1.7
			c-0.7,0.7-1,1.6-1,2.6c0,0.9,0.3,1.7,0.9,2.2c0.6,0.6,1.4,1,2.4,1.4c1,0.4,2.1,0.7,3.3,1.1s2.4,0.7,3.6,1.1
			c1.2,0.4,2.3,0.9,3.3,1.6c1,0.6,1.8,1.4,2.4,2.4c0.6,1,0.9,2.2,0.9,3.7c0,2.2-0.6,4.1-1.8,5.8s-2.9,2.9-5.2,3.8
			C684.5,664.6,681.9,665.1,678.9,665.1z"/>
	</g>
</g>
</svg>
